<?xml version="1.0" encoding="utf-8"?>
<!-- Generator: Adobe Illustrator 27.5.0, SVG Export Plug-In . SVG Version: 6.00 Build 0)  -->
<svg version="1.1" xmlns="http://www.w3.org/2000/svg" xmlns:xlink="http://www.w3.org/1999/xlink" x="0px" y="0px"
	 viewBox="0 0 2850.004 1900" style="enable-background:new 0 0 2850.004 1900;" xml:space="preserve">
<g id="BG">
	<rect x="0" y="0" style="fill:#FFFFFF;" width="2850.004" height="1900"/>
</g>
<g id="graphics">
	<g>
		<g>
			<path style="fill:#989999;" d="M991.906,1415.537v-56.557c0-13.052-4.972-21.753-22.374-21.753h-25.067v78.31h-35.84v-78.31
				h-36.047c-5.594,0-8.08-0.207-11.394-0.622v78.932h-37.291v-105.034h151.854c32.525,0,53.45,14.916,53.45,48.478v56.557H991.906z
				"/>
			<path style="fill:#989999;" d="M1105.854,1298.694v-27.554h37.498v27.554H1105.854z M1105.854,1415.537v-102.963h37.498v102.963
				H1105.854z"/>
			<path style="fill:#989999;" d="M1220.005,1415.537v-59.25c0-32.111,19.267-45.784,50.964-45.784h34.597v25.274h-27.968
				c-15.124,0-19.888,7.251-19.888,20.51v59.25H1220.005z"/>
			<path style="fill:#989999;" d="M1406.046,1415.537c-23.41,0-31.283-14.295-31.283-33.354s7.873-30.66,31.283-30.66h65.258
				c-2.071-12.431-7.872-15.745-22.374-15.745h-70.023v-25.274h73.338c39.776,0,56.557,13.673,56.557,52.62v52.414H1406.046z
				 M1472.341,1371.41h-53.657c-7.044,0-9.53,3.521-9.53,9.322c0,6.008,2.486,9.323,9.53,9.323h53.657V1371.41z"/>
			<path style="fill:#989999;" d="M1635.802,1415.537c-32.111,0-53.449-13.052-53.449-52.621c0-39.361,20.924-52.413,53.449-52.413
				h66.708v27.139h-59.872c-18.645,0-23.409,8.908-23.409,25.274c0,16.574,4.765,25.482,23.409,25.482h59.872v27.139H1635.802z"/>
			<path style="fill:#989999;" d="M1777.716,1415.537v-144.396h37.498v144.396H1777.716z"/>
			<path style="fill:#989999;" d="M1944.073,1415.537c-36.876,0-53.449-13.673-53.449-52.621c0-38.74,14.087-52.413,53.449-52.413
				h43.091c26.311,0,38.947,11.809,38.947,32.111c0,20.302-11.394,29.417-29.003,29.417h-70.024
				c1.657,13.467,7.251,17.817,22.789,17.817h70.851v25.688H1944.073z M1949.874,1332.877c-15.538,0-21.546,4.972-22.789,17.609
				h53.657c7.251,0,10.151-2.693,10.151-8.701c0-5.801-2.9-8.908-10.151-8.908H1949.874z"/>
		</g>
	</g>
	<g>
		<path style="fill:#383C41;" d="M1397.117,1046.316c13.63,19.221,42.121,19.222,55.752,0.002l144.83-204.212
			c28.453-40.122,28.455-94.036,0-134.161l-64.092-90.362l-66.021,93.097c-28.459,40.121-28.463,94.036-0.008,134.164l28.055,39.557
			l-56.699,79.948c-6.816,9.61-21.061,9.609-27.876-0.001l-56.692-79.941l28.059-39.565c28.452-40.125,28.449-94.04-0.008-134.158
			l-66.024-93.1l-64.094,90.365c-28.452,40.122-28.451,94.036,0.002,134.155L1397.117,1046.316z M1515.534,744.686l18.075-25.485
			l16.139,22.751c14.029,19.784,14.029,46.367,0,66.146l-18.08,25.495l-16.139-22.755
			C1501.5,791.053,1501.501,764.47,1515.534,744.686z M1300.249,741.954l16.141-22.754l18.077,25.488
			c14.032,19.781,14.033,46.364,0.005,66.146l-16.141,22.761l-18.08-25.498C1286.223,788.318,1286.223,761.735,1300.249,741.954z"/>
		<path style="fill:#383C41;" d="M1749.041,921.344c-13.662-19.262-35.904-30.762-59.498-30.762c-23.6,0-45.836,11.506-59.48,30.779
			l-54.064,76.358l0,0l-62.458,88.213c-16.716,23.607-43.96,37.699-72.88,37.699h-31.32c-28.92,0-56.164-14.092-72.879-37.695
			l-62.46-88.217l0,0l-54.064-76.358c-13.645-19.273-35.881-30.779-59.479-30.779c-23.595,0-45.837,11.5-59.5,30.762
			l-182.963,257.978h150.631c47.953,0,93.142-23.353,120.881-62.465l48.451-68.316l50.528,71.365
			c27.717,39.143,72.896,62.511,120.854,62.511h31.32c47.957,0,93.137-23.368,120.855-62.514l50.527-71.362l48.451,68.313
			c27.736,39.115,72.924,62.468,120.881,62.468h150.635L1749.041,921.344z M1141.556,1082.852
			c-16.735,23.597-43.999,37.687-72.931,37.687h-36.872l117.152-165.186c3.694-5.206,8.823-5.985,11.552-5.985
			c2.719,0,7.83,0.776,11.502,5.961l29.992,42.361L1141.556,1082.852z M1708.447,1082.849l-60.398-85.159l29.992-42.361
			c3.672-5.185,8.783-5.961,11.502-5.961c2.729,0,7.858,0.779,11.549,5.985l117.156,165.186h-36.873
			C1752.443,1120.538,1725.182,1106.448,1708.447,1082.849z"/>
	</g>
</g>
</svg>
